<svg width="32" height="32" viewBox="0 0 32 32" fill="none" xmlns="http://www.w3.org/2000/svg">
<path fill-rule="evenodd" clip-rule="evenodd" d="M22.364 9.63606C22.5515 9.82359 22.6569 10.0779 22.6569 10.3432C22.6569 10.6084 22.5515 10.8627 22.364 11.0503L16.7071 16.7071C16.5196 16.8947 16.2652 17 16 17C15.7348 17 15.4804 16.8947 15.2929 16.7071L9.63604 11.0503C9.4485 10.8627 9.34315 10.6084 9.34315 10.3432C9.34315 10.0779 9.4485 9.82359 9.63604 9.63606C9.82358 9.44852 10.0779 9.34316 10.3431 9.34316C10.6084 9.34316 10.8627 9.44852 11.0503 9.63606L16 14.5858L20.9497 9.63606C21.1373 9.44852 21.3916 9.34316 21.6569 9.34316C21.9221 9.34316 22.1764 9.44852 22.364 9.63606Z" fill="black"/>
<path fill-rule="evenodd" clip-rule="evenodd" d="M15.2929 15.2929C15.4804 15.1054 15.7348 15 16 15C16.2652 15 16.5196 15.1054 16.7071 15.2929L22.364 20.9498C22.5515 21.1373 22.6569 21.3917 22.6569 21.6569C22.6569 21.9221 22.5515 22.1765 22.364 22.364C22.1764 22.5515 21.9221 22.6569 21.6569 22.6569C21.3916 22.6569 21.1373 22.5515 20.9497 22.364L16 17.4142L11.0503 22.364C10.8627 22.5515 10.6084 22.6569 10.3431 22.6569C10.0779 22.6569 9.82358 22.5515 9.63604 22.364C9.4485 22.1765 9.34315 21.9221 9.34315 21.6569C9.34315 21.3917 9.4485 21.1373 9.63604 20.9498L15.2929 15.2929Z" fill="black"/>
</svg>
